<svg xmlns="http://www.w3.org/2000/svg" viewBox="0 0 165.6 101.52"><defs><style>.cls-1{fill:none;stroke:#000;stroke-miterlimit:8;stroke-width:1.44px;}</style></defs><title>aaa</title><g id="图层_2" data-name="图层 2"><g id="图层_1-2" data-name="图层 1"><path class="cls-1" d="M91.59.72c14.45,0,27.2,5.39,34.72,13.58l1.48,2,.25,0c21,3.48,36.85,18.51,36.85,36.53,0,20.59-20.66,37.29-46.15,37.29a57,57,0,0,1-9.3-.76l-7.57-1.9L101,88.73C94.95,96,84.66,100.8,73,100.8S51,96,44.95,88.73l-.3-.45-.85.23a36.25,36.25,0,0,1-6.48.58C17.1,89.1.72,72.45.72,51.91S17.1,14.72,37.32,14.72a36,36,0,0,1,14.25,2.92l2,1.11,3.29-4.46C64.39,6.11,77.14.72,91.59.72Z"/><path d="M107.64,75a33.32,33.32,0,0,1-4,10.21,30.36,30.36,0,0,1-7.43,8.19,33.68,33.68,0,0,1-9.84,5.12,46.85,46.85,0,0,1-10.87,2.21,34.87,34.87,0,0,1-11.08-.8A36.61,36.61,0,0,1,54.09,95.8a34.63,34.63,0,0,1-8.55-7A30.65,30.65,0,0,1,40,79.36a33.47,33.47,0,0,0,14.66,15.5,36.18,36.18,0,0,0,20.75,4.43,39.53,39.53,0,0,0,20.18-6.8A32.38,32.38,0,0,0,107.64,75Z"/><path d="M128.46,16.08a46.11,46.11,0,0,1,3.49,8,34.41,34.41,0,0,1,1.5,8.57,34.06,34.06,0,0,0-2.16-8.34,45.07,45.07,0,0,0-4-7.57Z"/></g></g></svg>