<svg xmlns="http://www.w3.org/2000/svg" viewBox="0 0 126 127.44"><defs><style>.a{fill:#ffff4b;}.a,.b{fill-rule:evenodd;}.b{fill:#ff3737;}</style></defs><title>资源 6</title><path class="a" d="M62.31,30.51,84.71,0q-1.07,15.6-2.14,31.2l24.65-5.09L92.39,44.55l30.67,3.13-20.36,13.7L126,77.87l-27.78-2L105.85,106,85.14,92.29l-4.51,35.15-19.2-29L47.82,120.66C46.32,109,46.5,103.22,45,91.56l-33.17,24.3L33.06,81.66.79,85.47,28.64,67.6,0,50.48,32,48,2.16,13.45l37,20.8,9.53-20.8L62.31,30.51Z"/><path class="b" d="M34.56,62.28A28.44,28.44,0,1,1,63,90.72,28.44,28.44,0,0,1,34.56,62.28Z"/></svg>